<svg xmlns="http://www.w3.org/2000/svg" version="1.1" xmlns:xlink="http://www.w3.org/1999/xlink" xmlns:svgjs="http://svgjs.dev/svgjs" width="1000" height="1000" viewBox="0 0 1000 1000"><rect width="1000" height="1000" fill="#000000"></rect><g transform="matrix(0.7,0,0,0.7,149.57575757575756,282.1265587044535)"><svg viewBox="0 0 396 247" data-background-color="#ffffff" preserveAspectRatio="xMidYMid meet" height="623" width="1000" xmlns="http://www.w3.org/2000/svg" xmlns:xlink="http://www.w3.org/1999/xlink"><g id="tight-bounds" transform="matrix(1,0,0,1,0.2400000000000091,-0.09999999999999432)"><svg viewBox="0 0 395.52 247.2" height="247.2" width="395.52"><g><svg></svg></g><g><svg viewBox="0 0 395.52 247.2" height="247.2" width="395.52"><g transform="matrix(1,0,0,1,75.54432,76.00394567112858)"><svg viewBox="0 0 244.43135999999998 95.19210865774282" height="95.19210865774282" width="244.43135999999998"><g><svg viewBox="0 0 244.43135999999998 95.19210865774282" height="95.19210865774282" width="244.43135999999998"><g><svg viewBox="0 0 392.2770660424767 152.7696" height="95.19210865774282" width="244.43135999999998"><g><svg viewBox="0 0 220.15564273972603 152.7696" height="152.7696" width="220.15564273972603"><g id="textblocktransform"><svg viewBox="0 0 220.15564273972603 152.7696" height="152.7696" width="220.15564273972603" id="textblock"><g><svg viewBox="0 0 220.15564273972603 152.7696" height="152.7696" width="220.15564273972603"><g transform="matrix(1,0,0,1,0,0)"><svg width="220.15564273972603" viewBox="0.6000000238418579 -36.5 52.60000228881836 36.5" height="152.7696" data-palette-color="#636365"><path d="M13.05-4.05L21.2-25 25.4-25 15 0 11 0 0.6-25 5.15-25 13.05-4.05ZM47.55-25L52.6-25 41.8-14.2 40.85-13.25 32.65-5.05 32.65-10.05 47.55-25ZM30.65-36.5L34.65-36.5 34.65 0 30.65 0 30.65-36.5ZM38.8-14L42.15-16.25 53.2 0 48.35 0 38.8-14Z" opacity="1" transform="matrix(1,0,0,1,0,0)" fill="#ffffff" class="wordmark-text-0" data-fill-palette-color="primary" id="text-0"></path></svg></g></svg></g></svg></g></svg></g><g transform="matrix(1,0,0,1,256.220878829326,8.356706393424659)"><svg viewBox="0 0 136.05618721315068 136.05618721315068" height="136.05618721315068" width="136.05618721315068"><g><svg xmlns="http://www.w3.org/2000/svg" xmlns:xlink="http://www.w3.org/1999/xlink" version="1.1" x="0" y="0" viewBox="40.5 39.5 425 425" enable-background="new 0 0 500 500" xml:space="preserve" height="136.05618721315068" width="136.05618721315068" class="icon-icon-0" data-fill-palette-color="accent" id="icon-0"><g fill="#89939e" data-fill-palette-color="accent"><path fill="#ffffff" d="M465.5 464.5h-425v-425h425V464.5zM65.5 439.5h375v-375h-375V439.5z" data-fill-palette-color="accent"></path></g><g fill="#89939e" data-fill-palette-color="accent"><rect x="53" y="352" fill="#ffffff" width="400" height="25" data-fill-palette-color="accent"></rect></g><g fill="#89939e" data-fill-palette-color="accent"><rect x="103" y="89.5" fill="#ffffff" width="50" height="25" data-fill-palette-color="accent"></rect></g><g fill="#89939e" data-fill-palette-color="accent"><rect x="203" y="89.5" fill="#ffffff" width="200" height="25" data-fill-palette-color="accent"></rect></g><g fill="#89939e" data-fill-palette-color="accent"><rect x="103" y="402.548" fill="#ffffff" width="75" height="46.327" data-fill-palette-color="accent"></rect></g><g fill="#89939e" data-fill-palette-color="accent"><rect x="215.5" y="402.548" fill="#ffffff" width="75" height="46.327" data-fill-palette-color="accent"></rect></g><g fill="#89939e" data-fill-palette-color="accent"><rect x="328" y="402.548" fill="#ffffff" width="75" height="46.327" data-fill-palette-color="accent"></rect></g><circle fill="#ffffff" cx="253" cy="208.193" r="41" data-fill-palette-color="accent"></circle><path fill="#ffffff" d="M253 264.42c0 0-72.086 4.037-72.086 32.871s0 57.669 0 57.669h144.172v-57.669C325.086 297.291 306.632 264.42 253 264.42z" data-fill-palette-color="accent"></path></svg></g></svg></g></svg></g></svg></g></svg></g><g><path d="M245.816 0c68.262 0 123.6 55.338 123.6 123.6 0 68.262-55.338 123.6-123.6 123.6-46.964 0-87.81-26.193-108.727-64.768l4.909 0c20.509 36.114 59.318 60.475 103.818 60.476 65.892 0 119.308-53.416 119.307-119.308 0-65.892-53.416-119.308-119.307-119.308-44.499 0-83.308 24.362-103.818 60.476l-4.909 0c20.917-38.575 61.763-64.768 108.727-64.768z" fill="#ffffff" stroke="transparent" data-fill-palette-color="tertiary"></path></g></svg></g><defs></defs></svg><rect width="395.52" height="247.2" fill="none" stroke="none" visibility="hidden"></rect></g></svg></g></svg>